<mxfile host="app.diagrams.net" agent="Mozilla/5.0 (Macintosh; Intel Mac OS X 10_15_7) AppleWebKit/537.36 (KHTML, like Gecko) Chrome/134.0.0.0 Safari/537.36" version="26.2.8">
  <diagram name="Page-1" id="piTJ4yABlGyB2_TCcSkk">
    <mxGraphModel dx="964" dy="721" grid="1" gridSize="10" guides="1" tooltips="1" connect="1" arrows="1" fold="1" page="1" pageScale="1" pageWidth="1169" pageHeight="827" math="0" shadow="0">
      <root>
        <mxCell id="0" />
        <mxCell id="1" parent="0" />
        <mxCell id="aWhmmYHfGadmUJ6fNQog-5" value="" style="edgeStyle=orthogonalEdgeStyle;rounded=0;orthogonalLoop=1;jettySize=auto;html=1;" parent="1" source="aWhmmYHfGadmUJ6fNQog-1" target="aWhmmYHfGadmUJ6fNQog-4" edge="1">
          <mxGeometry relative="1" as="geometry" />
        </mxCell>
        <mxCell id="aWhmmYHfGadmUJ6fNQog-1" value="Retool" style="rounded=0;whiteSpace=wrap;html=1;" parent="1" vertex="1">
          <mxGeometry x="340" y="140" width="120" height="60" as="geometry" />
        </mxCell>
        <mxCell id="aWhmmYHfGadmUJ6fNQog-7" value="" style="edgeStyle=orthogonalEdgeStyle;rounded=0;orthogonalLoop=1;jettySize=auto;html=1;" parent="1" source="aWhmmYHfGadmUJ6fNQog-4" target="aWhmmYHfGadmUJ6fNQog-6" edge="1">
          <mxGeometry relative="1" as="geometry" />
        </mxCell>
        <mxCell id="aWhmmYHfGadmUJ6fNQog-4" value="Data Extractors&amp;nbsp;&lt;div&gt;apps/dev-tools&lt;/div&gt;" style="whiteSpace=wrap;html=1;rounded=0;" parent="1" vertex="1">
          <mxGeometry x="340" y="280" width="120" height="60" as="geometry" />
        </mxCell>
        <mxCell id="aWhmmYHfGadmUJ6fNQog-6" value="dev-tools/actions" style="whiteSpace=wrap;html=1;rounded=0;" parent="1" vertex="1">
          <mxGeometry x="340" y="420" width="120" height="60" as="geometry" />
        </mxCell>
        <mxCell id="aWhmmYHfGadmUJ6fNQog-25" style="edgeStyle=orthogonalEdgeStyle;rounded=0;orthogonalLoop=1;jettySize=auto;html=1;" parent="1" source="aWhmmYHfGadmUJ6fNQog-8" target="aWhmmYHfGadmUJ6fNQog-9" edge="1">
          <mxGeometry relative="1" as="geometry" />
        </mxCell>
        <mxCell id="aWhmmYHfGadmUJ6fNQog-8" value="action to trigger" style="shape=cylinder3;whiteSpace=wrap;html=1;boundedLbl=1;backgroundOutline=1;size=15;" parent="1" vertex="1">
          <mxGeometry x="70" y="130" width="60" height="80" as="geometry" />
        </mxCell>
        <mxCell id="aWhmmYHfGadmUJ6fNQog-9" value="action to trigger" style="swimlane;fontStyle=0;childLayout=stackLayout;horizontal=1;startSize=30;horizontalStack=0;resizeParent=1;resizeParentMax=0;resizeLast=0;collapsible=1;marginBottom=0;whiteSpace=wrap;html=1;" parent="1" vertex="1">
          <mxGeometry x="30" y="230" width="140" height="350" as="geometry" />
        </mxCell>
        <mxCell id="aWhmmYHfGadmUJ6fNQog-10" value="id" style="text;strokeColor=none;fillColor=none;align=left;verticalAlign=middle;spacingLeft=4;spacingRight=4;overflow=hidden;points=[[0,0.5],[1,0.5]];portConstraint=eastwest;rotatable=0;whiteSpace=wrap;html=1;" parent="aWhmmYHfGadmUJ6fNQog-9" vertex="1">
          <mxGeometry y="30" width="140" height="30" as="geometry" />
        </mxCell>
        <mxCell id="aWhmmYHfGadmUJ6fNQog-11" value="action name" style="text;strokeColor=none;fillColor=none;align=left;verticalAlign=middle;spacingLeft=4;spacingRight=4;overflow=hidden;points=[[0,0.5],[1,0.5]];portConstraint=eastwest;rotatable=0;whiteSpace=wrap;html=1;" parent="aWhmmYHfGadmUJ6fNQog-9" vertex="1">
          <mxGeometry y="60" width="140" height="30" as="geometry" />
        </mxCell>
        <mxCell id="aWhmmYHfGadmUJ6fNQog-21" value="sns name" style="text;strokeColor=none;fillColor=none;align=left;verticalAlign=middle;spacingLeft=4;spacingRight=4;overflow=hidden;points=[[0,0.5],[1,0.5]];portConstraint=eastwest;rotatable=0;whiteSpace=wrap;html=1;" parent="aWhmmYHfGadmUJ6fNQog-9" vertex="1">
          <mxGeometry y="90" width="140" height="30" as="geometry" />
        </mxCell>
        <mxCell id="aWhmmYHfGadmUJ6fNQog-22" value="sqs name" style="text;strokeColor=none;fillColor=none;align=left;verticalAlign=middle;spacingLeft=4;spacingRight=4;overflow=hidden;points=[[0,0.5],[1,0.5]];portConstraint=eastwest;rotatable=0;whiteSpace=wrap;html=1;" parent="aWhmmYHfGadmUJ6fNQog-9" vertex="1">
          <mxGeometry y="120" width="140" height="30" as="geometry" />
        </mxCell>
        <mxCell id="aWhmmYHfGadmUJ6fNQog-16" value="data:&amp;nbsp;&lt;span style=&quot;background-color: transparent; color: light-dark(rgb(0, 0, 0), rgb(255, 255, 255));&quot;&gt;{&lt;/span&gt;&lt;div&gt;&lt;div&gt;&lt;span style=&quot;white-space: pre;&quot;&gt;&#x9;&lt;/span&gt;tableName: string;&lt;/div&gt;&lt;div&gt;&lt;span style=&quot;white-space: pre;&quot;&gt;&#x9;&lt;/span&gt;tableType: string;&lt;/div&gt;&lt;div&gt;&lt;span style=&quot;white-space: pre;&quot;&gt;&#x9;&lt;/span&gt;data: any[];&lt;/div&gt;&lt;div&gt;}&lt;span style=&quot;background-color: transparent; color: light-dark(rgb(0, 0, 0), rgb(255, 255, 255));&quot;&gt;[]&lt;/span&gt;&lt;/div&gt;&lt;/div&gt;" style="text;strokeColor=none;fillColor=none;align=left;verticalAlign=middle;spacingLeft=4;spacingRight=4;overflow=hidden;points=[[0,0.5],[1,0.5]];portConstraint=eastwest;rotatable=0;whiteSpace=wrap;html=1;" parent="aWhmmYHfGadmUJ6fNQog-9" vertex="1">
          <mxGeometry y="150" width="140" height="110" as="geometry" />
        </mxCell>
        <mxCell id="aWhmmYHfGadmUJ6fNQog-18" value="created_at" style="text;strokeColor=none;fillColor=none;align=left;verticalAlign=middle;spacingLeft=4;spacingRight=4;overflow=hidden;points=[[0,0.5],[1,0.5]];portConstraint=eastwest;rotatable=0;whiteSpace=wrap;html=1;" parent="aWhmmYHfGadmUJ6fNQog-9" vertex="1">
          <mxGeometry y="260" width="140" height="30" as="geometry" />
        </mxCell>
        <mxCell id="aWhmmYHfGadmUJ6fNQog-19" value="updated_at" style="text;strokeColor=none;fillColor=none;align=left;verticalAlign=middle;spacingLeft=4;spacingRight=4;overflow=hidden;points=[[0,0.5],[1,0.5]];portConstraint=eastwest;rotatable=0;whiteSpace=wrap;html=1;" parent="aWhmmYHfGadmUJ6fNQog-9" vertex="1">
          <mxGeometry y="290" width="140" height="30" as="geometry" />
        </mxCell>
        <mxCell id="aWhmmYHfGadmUJ6fNQog-20" value="deleted_at" style="text;strokeColor=none;fillColor=none;align=left;verticalAlign=middle;spacingLeft=4;spacingRight=4;overflow=hidden;points=[[0,0.5],[1,0.5]];portConstraint=eastwest;rotatable=0;whiteSpace=wrap;html=1;" parent="aWhmmYHfGadmUJ6fNQog-9" vertex="1">
          <mxGeometry y="320" width="140" height="30" as="geometry" />
        </mxCell>
        <mxCell id="aWhmmYHfGadmUJ6fNQog-23" style="edgeStyle=orthogonalEdgeStyle;rounded=0;orthogonalLoop=1;jettySize=auto;html=1;entryX=1;entryY=0.5;entryDx=0;entryDy=0;entryPerimeter=0;" parent="1" source="aWhmmYHfGadmUJ6fNQog-6" target="aWhmmYHfGadmUJ6fNQog-8" edge="1">
          <mxGeometry relative="1" as="geometry">
            <Array as="points">
              <mxPoint x="235" y="430" />
              <mxPoint x="235" y="170" />
            </Array>
          </mxGeometry>
        </mxCell>
        <mxCell id="aWhmmYHfGadmUJ6fNQog-24" value="get actions by action name" style="edgeLabel;html=1;align=center;verticalAlign=middle;resizable=0;points=[];" parent="aWhmmYHfGadmUJ6fNQog-23" vertex="1" connectable="0">
          <mxGeometry x="0.7224" y="-3" relative="1" as="geometry">
            <mxPoint x="22" y="-7" as="offset" />
          </mxGeometry>
        </mxCell>
        <mxCell id="dHiyeyUTxoID4HvvEmh9-4" value="" style="edgeStyle=orthogonalEdgeStyle;rounded=0;orthogonalLoop=1;jettySize=auto;html=1;entryX=0.5;entryY=0;entryDx=0;entryDy=0;" edge="1" parent="1" source="dHiyeyUTxoID4HvvEmh9-1" target="aWhmmYHfGadmUJ6fNQog-1">
          <mxGeometry relative="1" as="geometry">
            <mxPoint x="340" y="60" as="targetPoint" />
          </mxGeometry>
        </mxCell>
        <mxCell id="dHiyeyUTxoID4HvvEmh9-5" value="" style="edgeStyle=orthogonalEdgeStyle;rounded=0;orthogonalLoop=1;jettySize=auto;html=1;" edge="1" parent="1" source="dHiyeyUTxoID4HvvEmh9-1" target="aWhmmYHfGadmUJ6fNQog-1">
          <mxGeometry relative="1" as="geometry" />
        </mxCell>
        <mxCell id="dHiyeyUTxoID4HvvEmh9-1" value="" style="shape=umlActor;verticalLabelPosition=bottom;verticalAlign=top;html=1;outlineConnect=0;" vertex="1" parent="1">
          <mxGeometry x="385" y="10" width="30" height="60" as="geometry" />
        </mxCell>
      </root>
    </mxGraphModel>
  </diagram>
</mxfile>
